<svg xmlns="http://www.w3.org/2000/svg" viewBox="0 0 960 320" role="img" aria-labelledby="title desc">
  <title id="title">Cursor connected to Alis Build</title>
  <desc id="desc">Cursor connected to the Alis Build MCP server.</desc>

  <defs>
    <filter id="node-shadow" x="-30%" y="-30%" width="160%" height="160%">
      <feDropShadow dx="0" dy="10" stdDeviation="10" flood-color="#000000" flood-opacity="0.25"/>
    </filter>
    <linearGradient id="connection" x1="0" x2="1" y1="0" y2="1">
      <stop offset="0" stop-color="#45a3ff"/>
      <stop offset="1" stop-color="#52d6a3"/>
    </linearGradient>
    <radialGradient id="center-fill" cx="50%" cy="48%" r="58%">
      <stop offset="0" stop-color="#343434"/>
      <stop offset="1" stop-color="#252525"/>
    </radialGradient>
    <filter id="alis-goo">
      <feGaussianBlur in="SourceGraphic" stdDeviation="2.6" result="blur"/>
      <feColorMatrix in="blur" mode="matrix" values="
        1 0 0 0 0
        0 1 0 0 0
        0 0 1 0 0
        0 0 0 19 -8
      " result="goo"/>
      <feBlend in="SourceGraphic" in2="goo"/>
    </filter>
  </defs>

  <rect width="960" height="320" rx="12" fill="#202020"/>

  <path
    d="M98 244 C250 198 344 256 480 222 C612 190 704 214 860 174"
    fill="none"
    stroke="#3a3a3a"
    stroke-width="1.5"
    opacity="0.28"
  />
  <path
    d="M112 74 C260 128 344 88 480 104 C612 120 704 74 850 92"
    fill="none"
    stroke="#3a3a3a"
    stroke-width="1.5"
    opacity="0.24"
  />

  <path d="M310 154 C430 134 550 134 674 154" fill="none" stroke="url(#connection)" stroke-linecap="round" stroke-width="4" opacity="0.82"/>
  <g fill="#52d6a3" opacity="0.95">
    <circle cx="438" cy="140" r="4.5"/>
    <circle cx="512" cy="140" r="4.5"/>
    <circle cx="586" cy="144" r="4.5"/>
  </g>

  <g filter="url(#node-shadow)">
    <g transform="translate(230 82)">
      <circle cx="80" cy="72" r="66" fill="#2b2b2b" stroke="#474747" stroke-width="2"/>
      <circle cx="80" cy="72" r="49" fill="#1f1f1f" stroke="#45a3ff" stroke-opacity="0.55" stroke-width="1.5"/>
      <g transform="translate(48.5 36) scale(0.135)">
        <path fill="#72716d" d="M233.37,266.66l231.16,133.46c-1.42,2.46-3.48,4.56-6.03,6.03l-216.06,124.74c-5.61,3.24-12.53,3.24-18.14,0L8.24,406.15c-2.55-1.47-4.61-3.57-6.03-6.03l231.16-133.46h0Z"/>
        <path fill="#55544f" d="M233.37,0v266.66L2.21,400.12c-1.42-2.46-2.21-5.3-2.21-8.24v-250.44c0-5.89,3.14-11.32,8.24-14.27L224.29,2.43c2.81-1.62,5.94-2.43,9.07-2.43h.01Z"/>
        <path fill="#43413c" d="M464.52,133.2c-1.42-2.46-3.48-4.56-6.03-6.03L242.43,2.43c-2.8-1.62-5.93-2.43-9.06-2.43v266.66l231.16,133.46c1.42-2.46,2.21-5.3,2.21-8.24v-250.44c0-2.95-.78-5.77-2.21-8.24h-.01Z"/>
        <path fill="#d6d5d2" d="M448.35,142.54c1.31,2.26,1.49,5.16,0,7.74l-209.83,363.42c-1.41,2.46-5.16,1.45-5.16-1.38v-239.48c0-1.91-.51-3.75-1.44-5.36l216.42-124.95h.01Z"/>
        <path fill="#fff" d="M448.35,142.54l-216.42,124.95c-.92-1.6-2.26-2.96-3.92-3.92L20.62,143.83c-2.46-1.41-1.45-5.16,1.38-5.16h419.65c2.98,0,5.4,1.61,6.7,3.87Z"/>
      </g>
      <text x="80" y="166" text-anchor="middle" fill="#d4d4d4" font-family="Inter, ui-sans-serif, system-ui, -apple-system, BlinkMacSystemFont, 'Segoe UI', sans-serif" font-size="20" font-weight="700">Cursor</text>
    </g>

    <g transform="translate(594 82)">
      <circle cx="80" cy="72" r="66" fill="url(#center-fill)" stroke="#5bb7ff" stroke-opacity="0.75" stroke-width="2.5"/>
      <circle cx="80" cy="72" r="49" fill="#1f1f1f" stroke="#52d6a3" stroke-opacity="0.55" stroke-width="1.5"/>
      <g transform="translate(45 37) scale(0.55)">
        <style>
          .alis-dot { fill: #f02222; opacity: 0.92; }
          .alis-goo-dot { fill: #f02222; opacity: 0.94; }
          .alis-traveler { fill: #f02222; }
        </style>
        <g filter="url(#alis-goo)">
          <circle class="alis-goo-dot" cx="64.0006" cy="23.742" r="7.7339"/>
          <circle class="alis-goo-dot" cx="84.1075" cy="23.742" r="7.7339"/>
          <circle class="alis-goo-dot" cx="64.0006" cy="43.8713" r="7.7339"/>
          <circle class="alis-goo-dot" cx="84.1075" cy="43.8713" r="7.7339"/>
          <circle class="alis-goo-dot" cx="43.8939" cy="64" r="7.7339"/>
          <circle class="alis-goo-dot" cx="64.0006" cy="64" r="7.7339"/>
          <circle class="alis-goo-dot" cx="84.1075" cy="64" r="7.7339"/>
          <circle class="alis-goo-dot" cx="43.8939" cy="84.1294" r="7.7339"/>
          <circle class="alis-goo-dot" cx="64.0006" cy="84.1294" r="7.7339"/>
          <circle class="alis-goo-dot" cx="43.8939" cy="104.258" r="7.7339"/>
          <circle class="alis-goo-dot" cx="64.0006" cy="104.258" r="7.7339"/>
          <circle class="alis-traveler" cx="64.0006" cy="64" r="8"/>
        </g>
        <g>
          <circle class="alis-dot" cx="64.0006" cy="23.742" r="7.7339"/>
          <circle class="alis-dot" cx="84.1075" cy="23.742" r="7.7339"/>
          <circle class="alis-dot" cx="64.0006" cy="43.8713" r="7.7339"/>
          <circle class="alis-dot" cx="84.1075" cy="43.8713" r="7.7339"/>
          <circle class="alis-dot" cx="43.8939" cy="64" r="7.7339"/>
          <circle class="alis-dot" cx="64.0006" cy="64" r="7.7339"/>
          <circle class="alis-dot" cx="84.1075" cy="64" r="7.7339"/>
          <circle class="alis-dot" cx="43.8939" cy="84.1294" r="7.7339"/>
          <circle class="alis-dot" cx="64.0006" cy="84.1294" r="7.7339"/>
          <circle class="alis-dot" cx="43.8939" cy="104.258" r="7.7339"/>
          <circle class="alis-dot" cx="64.0006" cy="104.258" r="7.7339"/>
        </g>
      </g>
      <text x="80" y="166" text-anchor="middle" fill="#f2f2f2" font-family="Inter, ui-sans-serif, system-ui, -apple-system, BlinkMacSystemFont, 'Segoe UI', sans-serif" font-size="20" font-weight="800">Alis Build</text>
    </g>
  </g>
</svg>
